<svg class="svg-icon" style="width: 1em; height: 1em;vertical-align: middle;fill: currentColor;overflow: hidden;" viewBox="0 0 1024 1024" version="1.1" xmlns="http://www.w3.org/2000/svg"><path d="M618.666667 874.666667a106.666667 106.666667 0 0 1-213.333334 0H85.333333c-36.650667 0-56.256-43.178667-32.106666-70.762667l107.136-122.453333C176.853333 662.613333 192 622.293333 192 597.269333V362.666667C192 185.941333 335.274667 42.666667 512 42.666667c176.725333 0 320 143.274667 320 320v234.602666c0 25.066667 15.146667 65.322667 31.637333 84.181334l107.136 122.453333C994.922667 831.488 975.317333 874.666667 938.666667 874.666667H618.666667z m180.757333-137.024C769.28 703.232 746.666667 643.008 746.666667 597.269333V362.666667c0-129.6-105.066667-234.666667-234.666667-234.666667s-234.666667 105.066667-234.666667 234.666667v234.602666c0 45.696-22.656 105.984-52.757333 140.373334L179.349333 789.333333h665.28l-45.226666-51.690666z" fill="" /></svg>