<svg xmlns="http://www.w3.org/2000/svg" width="100" height="100" viewBox="0 0 100 100" id="more"><g><path d="M50 12c-21 0-38 17-38 38s17 38 38 38 38-17 38-38-17-38-38-38zm0 72c-18.8 0-34-15.2-34-34s15.2-34 34-34 34 15.2 34 34-15.2 34-34 34zm0-41c-3.9 0-7 3.1-7 7s3.1 7 7 7 7-3.1 7-7-3.1-7-7-7zm0 10c-1.7 0-3-1.4-3-3 0-1.7 1.3-3 3-3s3 1.3 3 3c0 1.6-1.3 3-3 3zm20-10c-3.9 0-7 3.1-7 7s3.1 7 7 7 7-3.1 7-7-3.1-7-7-7zm0 10c-1.7 0-3-1.4-3-3 0-1.7 1.3-3 3-3s3 1.3 3 3c0 1.6-1.3 3-3 3zM30 43c-3.9 0-7 3.1-7 7s3.1 7 7 7 7-3.1 7-7-3.1-7-7-7zm0 10c-1.7 0-3-1.4-3-3 0-1.7 1.3-3 3-3s3 1.3 3 3c0 1.6-1.3 3-3 3z"></path></g><g><path fill="#00F" d="M664-1210V474h-1784v-1684H664m8-8h-1800V482H672v-1700z"></path></g></svg>
