<svg xmlns="http://www.w3.org/2000/svg" version="1.1" xmlns:xlink="http://www.w3.org/1999/xlink" xmlns:svgjs="http://svgjs.dev/svgjs" width="1500" height="257" viewBox="0 0 1500 257"><g transform="matrix(1,0,0,1,-0.9090909090909918,-0.7404023705865086)"><svg viewBox="0 0 396 68" data-background-color="#000000" preserveAspectRatio="xMidYMid meet" height="257" width="1500" xmlns="http://www.w3.org/2000/svg" xmlns:xlink="http://www.w3.org/1999/xlink"><g id="tight-bounds" transform="matrix(1,0,0,1,0.2400000000000091,0.1959041291824235)"><svg viewBox="0 0 395.52 67.60819174163515" height="67.60819174163515" width="395.52"><g><svg viewBox="0 0 497.45988867329 85.03328159687568" height="67.60819174163515" width="395.52"><g><rect width="5.548762003439116" height="73.83497678455196" x="81.86557168702596" y="5.599152406161863" fill="#ffffff" opacity="1" stroke-width="0" stroke="transparent" fill-opacity="1" class="rect-qz-0" data-fill-palette-color="primary" rx="1%" id="qz-0" data-palette-color="#ffffff"></rect></g><g transform="matrix(1,0,0,1,101.93988867328999,11.752067138207856)"><svg viewBox="0 0 395.52 61.52914732045997" height="61.52914732045997" width="395.52"><g id="textblocktransform"><svg viewBox="0 0 395.52 61.52914732045997" height="61.52914732045997" width="395.52" id="textblock"><g><svg viewBox="0 0 395.52 61.52914732045997" height="61.52914732045997" width="395.52"><g transform="matrix(1,0,0,1,0,0)"><svg width="395.52" viewBox="0.7 -35.35 230.43 35.85" height="61.52914732045997" data-palette-color="#ffffff"><path d="M10.5 0.5L10.5 0.5Q7.8 0.5 5.58-0.88 3.35-2.25 2.02-4.53 0.7-6.8 0.7-9.55L0.7-9.55 0.7-11.85Q0.7-12.1 0.95-12.1L0.95-12.1 6.55-12.1Q6.75-12.1 6.75-11.85L6.75-11.85 6.75-9.55Q6.75-7.9 7.85-6.73 8.95-5.55 10.5-5.55L10.5-5.55Q12.05-5.55 13.15-6.75 14.25-7.95 14.25-9.55L14.25-9.55Q14.25-11.4 11.85-12.75L11.85-12.75Q11.05-13.2 9.35-14.15 7.65-15.1 6.15-15.95L6.15-15.95Q3.4-17.55 2.08-19.98 0.75-22.4 0.75-25.45L0.75-25.45Q0.75-28.25 2.1-30.48 3.45-32.7 5.68-34 7.9-35.3 10.5-35.3L10.5-35.3Q13.15-35.3 15.38-33.98 17.6-32.65 18.93-30.43 20.25-28.2 20.25-25.45L20.25-25.45 20.25-21.35Q20.25-21.15 20.05-21.15L20.05-21.15 14.45-21.15Q14.25-21.15 14.25-21.35L14.25-21.35 14.2-25.45Q14.2-27.2 13.1-28.3 12-29.4 10.5-29.4L10.5-29.4Q8.95-29.4 7.85-28.23 6.75-27.05 6.75-25.45L6.75-25.45Q6.75-23.8 7.45-22.7 8.15-21.6 10-20.6L10-20.6Q10.25-20.45 10.98-20.08 11.7-19.7 12.55-19.23 13.4-18.75 14.08-18.4 14.75-18.05 14.9-17.95L14.9-17.95Q17.4-16.55 18.85-14.53 20.3-12.5 20.3-9.55L20.3-9.55Q20.3-6.7 18.98-4.42 17.65-2.15 15.43-0.83 13.2 0.5 10.5 0.5ZM34.2 0L28.55 0Q28.35 0 28.35-0.25L28.35-0.25 28.35-28.75 21.85-28.75Q21.6-28.75 21.6-29L21.6-29 21.65-34.6Q21.65-34.8 21.85-34.8L21.85-34.8 40.85-34.8Q41.1-34.8 41.1-34.6L41.1-34.6 41.1-29Q41.1-28.75 40.9-28.75L40.9-28.75 34.35-28.75 34.4-0.25Q34.4 0 34.2 0L34.2 0ZM52.75 0.5L52.75 0.5Q50.09 0.5 47.84-0.88 45.59-2.25 44.27-4.55 42.95-6.85 42.95-9.6L42.95-9.6 43.05-34.6Q43.05-34.8 43.25-34.8L43.25-34.8 48.84-34.8Q49.05-34.8 49.05-34.6L49.05-34.6 49.05-9.6Q49.05-7.9 50.12-6.73 51.2-5.55 52.75-5.55L52.75-5.55Q54.34-5.55 55.42-6.73 56.5-7.9 56.5-9.6L56.5-9.6 56.5-34.6Q56.5-34.8 56.7-34.8L56.7-34.8 62.3-34.8Q62.5-34.8 62.5-34.6L62.5-34.6 62.59-9.6Q62.59-6.8 61.27-4.5 59.95-2.2 57.72-0.85 55.5 0.5 52.75 0.5ZM75.74-0.05L66.79 0Q66.54 0 66.54-0.25L66.54-0.25 66.64-34.6Q66.64-34.8 66.84-34.8L66.84-34.8 76.19-34.85Q78.94-34.9 81.22-33.55 83.49-32.2 84.84-29.93 86.19-27.65 86.19-24.9L86.19-24.9 86.19-10.55Q86.19-7.65 84.79-5.28 83.39-2.9 81.04-1.5 78.69-0.1 75.74-0.05L75.74-0.05ZM72.69-28.8L72.64-6.15 75.74-6.15Q77.59-6.15 78.87-7.45 80.14-8.75 80.14-10.55L80.14-10.55 80.14-24.95Q80.14-26.55 78.97-27.73 77.79-28.9 76.19-28.85L76.19-28.85 72.69-28.8ZM106.49 0L90.34 0Q90.14 0 90.14-0.25L90.14-0.25 90.19-34.6Q90.19-34.8 90.39-34.8L90.39-34.8 106.44-34.8Q106.64-34.8 106.64-34.55L106.64-34.55 106.64-28.95Q106.64-28.75 106.44-28.75L106.44-28.75 96.19-28.75 96.19-20.95 106.44-20.95Q106.64-20.95 106.64-20.75L106.64-20.75 106.69-15.1Q106.69-14.9 106.49-14.9L106.49-14.9 96.19-14.9 96.19-6.15 106.49-6.15Q106.69-6.15 106.69-5.9L106.69-5.9 106.69-0.2Q106.69 0 106.49 0L106.49 0ZM116.59 0L111.59 0Q111.19 0 111.19-0.35L111.19-0.35 111.14-34.4Q111.14-34.8 111.54-34.8L111.54-34.8 116.04-34.8 124.49-15.1 124.24-34.4Q124.24-34.8 124.69-34.8L124.69-34.8 129.64-34.8Q129.94-34.8 129.94-34.4L129.94-34.4 129.99-0.3Q129.99 0 129.74 0L129.74 0 125.34 0 116.69-18.4 117.04-0.4Q117.04 0 116.59 0L116.59 0ZM144.99 0L139.34 0Q139.14 0 139.14-0.25L139.14-0.25 139.14-28.75 132.64-28.75Q132.39-28.75 132.39-29L132.39-29 132.44-34.6Q132.44-34.8 132.64-34.8L132.64-34.8 151.64-34.8Q151.89-34.8 151.89-34.6L151.89-34.6 151.89-29Q151.89-28.75 151.69-28.75L151.69-28.75 145.14-28.75 145.19-0.25Q145.19 0 144.99 0L144.99 0ZM170.93 0.5L170.93 0.5Q168.18 0.5 165.96-0.88 163.73-2.25 162.43-4.55 161.13-6.85 161.13-9.7L161.13-9.7 161.18-25.3Q161.18-28.05 162.46-30.33 163.73-32.6 165.96-33.98 168.18-35.35 170.93-35.35L170.93-35.35Q173.68-35.35 175.88-34 178.08-32.65 179.38-30.38 180.68-28.1 180.68-25.3L180.68-25.3 180.68-23Q180.68-22.8 180.48-22.8L180.48-22.8 174.88-22.8Q174.68-22.8 174.68-23L174.68-23 174.68-25.3Q174.68-26.95 173.61-28.15 172.53-29.35 170.93-29.35L170.93-29.35Q169.13-29.35 168.18-28.13 167.23-26.9 167.23-25.3L167.23-25.3 167.23-9.7Q167.23-7.85 168.31-6.7 169.38-5.55 170.93-5.55L170.93-5.55Q172.53-5.55 173.61-6.83 174.68-8.1 174.68-9.7L174.68-9.7 174.68-12Q174.68-12.2 174.88-12.2L174.88-12.2 180.53-12.2Q180.73-12.2 180.73-12L180.73-12 180.73-9.7Q180.73-6.85 179.41-4.55 178.08-2.25 175.88-0.88 173.68 0.5 170.93 0.5ZM190.23 0L184.58 0Q184.38 0 184.38-0.25L184.38-0.25 184.48-34.6Q184.48-34.8 184.68-34.8L184.68-34.8 194.78-34.8Q197.48-34.8 199.75-33.48 202.03-32.15 203.38-29.93 204.73-27.7 204.73-24.9L204.73-24.9Q204.73-23.05 204.18-21.58 203.63-20.1 202.88-19.07 202.13-18.05 201.53-17.55L201.53-17.55Q204.23-14.55 204.23-10.5L204.23-10.5 204.28-0.25Q204.28 0 204.03 0L204.03 0 198.38 0Q198.18 0 198.18-0.15L198.18-0.15 198.18-10.5Q198.18-12.3 196.9-13.63 195.63-14.95 193.78-14.95L193.78-14.95 190.48-14.95 190.43-0.25Q190.43 0 190.23 0L190.23 0ZM190.48-28.8L190.48-20.95 194.78-20.95Q196.33-20.95 197.53-22.1 198.73-23.25 198.73-24.9L198.73-24.9Q198.73-26.5 197.55-27.65 196.38-28.8 194.78-28.8L194.78-28.8 190.48-28.8ZM214.33 0L208.68 0Q208.48 0 208.48-0.25L208.48-0.25 208.58-34.6Q208.58-34.8 208.78-34.8L208.78-34.8 214.88-34.8Q215.08-34.8 215.23-34.6L215.23-34.6 219.78-28 224.33-34.6Q224.48-34.8 224.68-34.8L224.68-34.8 230.83-34.8Q231.03-34.8 231.03-34.6L231.03-34.6 231.13-0.25Q231.13 0 230.93 0L230.93 0 225.28 0Q225.08 0 225.08-0.25L225.08-0.25 225.03-25.75 219.78-18.15 214.58-25.75 214.53-0.25Q214.53 0 214.33 0L214.33 0Z" opacity="1" transform="matrix(1,0,0,1,0,0)" fill="#ffffff" class="wordmark-text-0" data-fill-palette-color="primary" id="text-0"></path></svg></g></svg></g></svg></g></svg></g><g><svg viewBox="0 0 67.34001670420105 85.03328159687568" height="85.03328159687568" width="67.34001670420105"><g><svg xmlns="http://www.w3.org/2000/svg" xmlns:xlink="http://www.w3.org/1999/xlink" version="1.1" x="0" y="0" viewBox="14.383 5.795499999999999 70.71300000000001 89.29249999999998" enable-background="new 0 0 100 100" xml:space="preserve" height="85.03328159687568" width="67.34001670420105" class="icon-icon-0" data-fill-palette-color="accent" id="icon-0"><g fill="#ffffff" data-fill-palette-color="accent"><path d="M34.17 39.806c0 0-0.801-8.184 13.161-9.068 0 0 16.206-1.122 17.574 9.068 0 0 0.479 2.969 0 8.024 0 0 1.526 0.4 1.658 2.14 0 0 0.321 5.51-2.354 8.132h-1.367c0 0-3.234 11.419-6.763 13.372 0 0 25.484 5.425 29.017 15.484v8.13H14.383v-7.702c0 0 0.854-5.671 8.771-8.455 0 0 14.499-7.857 20.112-7.162 0 0-4.442-3.959-6.792-13.592 0 0-3 1.927-3.638-4.865 0 0-0.748-4.707 1.5-5.295L34.17 39.806z" fill="#ffffff" data-fill-palette-color="accent"></path><path d="M32.674 37.545l-17.981-8.96L48.941 5.872c0 0 0.514-0.306 1.186 0.306l33.686 22.407-17.336 8.96c0 0 0.442-11.928-19.364-10.617C47.112 26.928 32.1 27.274 32.674 37.545z" fill="#ffffff" data-fill-palette-color="accent"></path><path d="M24.541 52.527L23.17 24.148c0 0-0.026-0.04-0.08-0.098 0.601-0.312 1.009-0.937 1.009-1.659 0-1.031-0.838-1.868-1.87-1.868-1.031 0-1.87 0.836-1.87 1.868 0 0.75 0.446 1.394 1.08 1.694-0.022 0.021-0.038 0.04-0.053 0.062 0 0-1.696 18.992-1.443 28.838 0 0-0.567 3.906 2.569 3.479C22.513 56.466 24.715 56.379 24.541 52.527z" fill="#ffffff" data-fill-palette-color="accent"></path></g></svg></g></svg></g></svg></g><defs></defs></svg><rect width="395.52" height="67.60819174163515" fill="none" stroke="none" visibility="hidden"></rect></g></svg></g></svg>